# xmcd
#
# Track frame offsets:
#	150
#	12262
#	31587
#	47519
#	63237
#	77219
#	93291
#	111326
#	123808
#	142860
#	160995
#	176547
#	201267
#	217729
#	237152
#	249652
#	263380
#	277229
#	292241
#	308477
#	320000
#
# Disc length: 4455 seconds
#
# Revision: 1
# Processed by: cddbd v1.5.1PL0 Copyright (c) Steve Scherf et al.
# Submitted via: EasyCDDAExtractor 6.2.0.3
#
DISCID=1e116515
DTITLE=Dallas Wayne - Turenki, Texas
DYEAR=2002
DGENRE=Country
TTITLE0=Lucky 13
TTITLE1=If It's All The Same To You (Come On Home)
TTITLE2=She
TTITLE3=Death In The Family
TTITLE4=Crank The Hank
TTITLE5=I'll Walk Before I'll Crawl
TTITLE6=If Hearts Could Tell Time
TTITLE7=Honky Tonk History
TTITLE8=Stone By Stone
TTITLE9=She Lit The Torch
TTITLE10=Scremin' Down The Highway
TTITLE11=Sunnydale Acres
TTITLE12=Invisible Man
TTITLE13=Hoedown In Hell
TTITLE14=Straighten Up (And Lie Right)
TTITLE15=I Hit The Road (And The Road Hit Back)
TTITLE16=Big Thinkin'
TTITLE17=If That's Country
TTITLE18=I'm Back (And Lonelier Than Ever)
TTITLE19=Old 45's
TTITLE20=We Never Killed Each Other (But Didn't We Try?)
EXTD=
EXTT0=
EXTT1=
EXTT2=
EXTT3=
EXTT4=
EXTT5=
EXTT6=
EXTT7=
EXTT8=
EXTT9=
EXTT10=
EXTT11=
EXTT12=
EXTT13=
EXTT14=
EXTT15=
EXTT16=
EXTT17=
EXTT18=
EXTT19=
EXTT20=
PLAYORDER=
